# xmcd
#
# Track frame offsets: 
#        150
#        11752
#        29539
#        48998
#        63358
#        79474
#        95032
#        107386
#        124783
#        145691
#
# Disc length: 2139 seconds
#
# Revision: 2
# Processed by: cddbd v1.5.1PL0 Copyright (c) Steve Scherf et al.
# Submitted via: ExactAudioCopy v0.95a5
#
DISCID=8308590a
DTITLE=Dolly Parton - I Will Always Love You and Other Greatest Hits
DYEAR=1996
DGENRE=Country
TTITLE0=Why'd You Come in Here Lookin' Like That
TTITLE1=Yellow Roses
TTITLE2=White Limozeen
TTITLE3=Eagle When She Flies
TTITLE4=Romeo
TTITLE5=Rockin' Years
TTITLE6=To Daddy
TTITLE7=Silver and Gold
TTITLE8=He's Alive
TTITLE9=I Will Always Love You
EXTD=(P)(C)2002 SONY MUSIC RECORDS CO.LTD.
EXTT0=(P)(C)2002 SONY MUSIC RECORDS CO.LTD.
EXTT1=(P)(C)2002 SONY MUSIC RECORDS CO.LTD.
EXTT2=(P)(C)2002 SONY MUSIC RECORDS CO.LTD.
EXTT3=(P)(C)2002 SONY MUSIC RECORDS CO.LTD.
EXTT4=(P)(C)2002 SONY MUSIC RECORDS CO.LTD.
EXTT5=(P)(C)2002 SONY MUSIC RECORDS CO.LTD.
EXTT6=(P)(C)2002 SONY MUSIC RECORDS CO.LTD.
EXTT7=(P)(C)2002 SONY MUSIC RECORDS CO.LTD.
EXTT8=(P)(C)2002 SONY MUSIC RECORDS CO.LTD.
EXTT9=(P)(C)2002 SONY MUSIC RECORDS CO.LTD.
PLAYORDER=
